<mxfile host="Chrome" modified="2023-05-23T17:41:49.797Z" agent="Mozilla/5.0 (Windows NT 10.0; Win64; x64) AppleWebKit/537.36 (KHTML, like Gecko) Chrome/113.0.0.0 Safari/537.36" etag="jeh0ZB3TaISCUFosst20" version="21.2.7" type="device">
  <diagram id="IZxlMKCJBanf-v_nbbIJ" name="Page-1">
    <mxGraphModel dx="2250" dy="833" grid="1" gridSize="10" guides="1" tooltips="1" connect="1" arrows="1" fold="1" page="1" pageScale="1" pageWidth="850" pageHeight="1100" math="0" shadow="0">
      <root>
        <mxCell id="0" />
        <mxCell id="1" parent="0" />
        <mxCell id="cAt9lcFB_h7orrg8snh9-18" value="Client" style="whiteSpace=wrap;html=1;align=center;" parent="1" vertex="1">
          <mxGeometry x="-105" y="355" width="100" height="40" as="geometry" />
        </mxCell>
        <mxCell id="cAt9lcFB_h7orrg8snh9-19" value="Admin" style="whiteSpace=wrap;html=1;align=center;" parent="1" vertex="1">
          <mxGeometry x="-490" y="375" width="100" height="40" as="geometry" />
        </mxCell>
        <mxCell id="cAt9lcFB_h7orrg8snh9-24" style="edgeStyle=orthogonalEdgeStyle;rounded=0;orthogonalLoop=1;jettySize=auto;html=1;" parent="1" source="cAt9lcFB_h7orrg8snh9-22" target="cAt9lcFB_h7orrg8snh9-23" edge="1">
          <mxGeometry relative="1" as="geometry" />
        </mxCell>
        <mxCell id="cAt9lcFB_h7orrg8snh9-22" value="User" style="whiteSpace=wrap;html=1;align=center;" parent="1" vertex="1">
          <mxGeometry x="-330" y="215" width="100" height="40" as="geometry" />
        </mxCell>
        <mxCell id="cAt9lcFB_h7orrg8snh9-25" style="edgeStyle=orthogonalEdgeStyle;rounded=0;orthogonalLoop=1;jettySize=auto;html=1;" parent="1" source="cAt9lcFB_h7orrg8snh9-23" target="cAt9lcFB_h7orrg8snh9-19" edge="1">
          <mxGeometry relative="1" as="geometry" />
        </mxCell>
        <mxCell id="cAt9lcFB_h7orrg8snh9-26" style="edgeStyle=orthogonalEdgeStyle;rounded=0;orthogonalLoop=1;jettySize=auto;html=1;entryX=0.5;entryY=0;entryDx=0;entryDy=0;" parent="1" source="cAt9lcFB_h7orrg8snh9-23" target="cAt9lcFB_h7orrg8snh9-18" edge="1">
          <mxGeometry relative="1" as="geometry" />
        </mxCell>
        <mxCell id="cAt9lcFB_h7orrg8snh9-23" value="" style="verticalLabelPosition=bottom;verticalAlign=top;html=1;shape=mxgraph.flowchart.on-page_reference;" parent="1" vertex="1">
          <mxGeometry x="-305" y="285" width="50" height="50" as="geometry" />
        </mxCell>
        <mxCell id="cAt9lcFB_h7orrg8snh9-28" value="Booking" style="whiteSpace=wrap;html=1;align=center;" parent="1" vertex="1">
          <mxGeometry x="330" y="355" width="100" height="40" as="geometry" />
        </mxCell>
        <mxCell id="cAt9lcFB_h7orrg8snh9-29" value="Trip" style="whiteSpace=wrap;html=1;align=center;" parent="1" vertex="1">
          <mxGeometry x="25" y="645" width="100" height="40" as="geometry" />
        </mxCell>
        <mxCell id="cAt9lcFB_h7orrg8snh9-30" value="Train" style="whiteSpace=wrap;html=1;align=center;" parent="1" vertex="1">
          <mxGeometry x="25" y="860" width="100" height="40" as="geometry" />
        </mxCell>
        <mxCell id="cAt9lcFB_h7orrg8snh9-36" value="Book" style="shape=rhombus;perimeter=rhombusPerimeter;whiteSpace=wrap;html=1;align=center;" parent="1" vertex="1">
          <mxGeometry x="60" y="345" width="120" height="60" as="geometry" />
        </mxCell>
        <mxCell id="cAt9lcFB_h7orrg8snh9-44" value="userName" style="ellipse;whiteSpace=wrap;html=1;align=center;" parent="1" vertex="1">
          <mxGeometry x="-350" y="145" width="100" height="40" as="geometry" />
        </mxCell>
        <mxCell id="cAt9lcFB_h7orrg8snh9-45" value="userID" style="ellipse;whiteSpace=wrap;html=1;align=center;fontStyle=4;" parent="1" vertex="1">
          <mxGeometry x="-460" y="145" width="100" height="40" as="geometry" />
        </mxCell>
        <mxCell id="cAt9lcFB_h7orrg8snh9-46" value="Email" style="ellipse;whiteSpace=wrap;html=1;align=center;" parent="1" vertex="1">
          <mxGeometry x="-220" y="145" width="100" height="40" as="geometry" />
        </mxCell>
        <mxCell id="cAt9lcFB_h7orrg8snh9-47" value="password" style="ellipse;whiteSpace=wrap;html=1;align=center;" parent="1" vertex="1">
          <mxGeometry x="-90" y="145" width="100" height="40" as="geometry" />
        </mxCell>
        <mxCell id="cAt9lcFB_h7orrg8snh9-51" value="" style="endArrow=none;html=1;rounded=0;entryX=0.5;entryY=1;entryDx=0;entryDy=0;" parent="1" target="cAt9lcFB_h7orrg8snh9-45" edge="1">
          <mxGeometry relative="1" as="geometry">
            <mxPoint x="-330" y="235" as="sourcePoint" />
            <mxPoint x="-360" y="195" as="targetPoint" />
          </mxGeometry>
        </mxCell>
        <mxCell id="cAt9lcFB_h7orrg8snh9-53" value="" style="endArrow=none;html=1;rounded=0;entryX=0.5;entryY=1;entryDx=0;entryDy=0;exitX=0.5;exitY=0;exitDx=0;exitDy=0;" parent="1" source="cAt9lcFB_h7orrg8snh9-22" target="cAt9lcFB_h7orrg8snh9-44" edge="1">
          <mxGeometry relative="1" as="geometry">
            <mxPoint x="-305" y="215" as="sourcePoint" />
            <mxPoint x="-365" y="195" as="targetPoint" />
          </mxGeometry>
        </mxCell>
        <mxCell id="cAt9lcFB_h7orrg8snh9-54" value="" style="endArrow=none;html=1;rounded=0;entryX=0.5;entryY=1;entryDx=0;entryDy=0;exitX=0.75;exitY=0;exitDx=0;exitDy=0;" parent="1" source="cAt9lcFB_h7orrg8snh9-22" target="cAt9lcFB_h7orrg8snh9-46" edge="1">
          <mxGeometry relative="1" as="geometry">
            <mxPoint x="-295" y="225" as="sourcePoint" />
            <mxPoint x="-290" y="195" as="targetPoint" />
          </mxGeometry>
        </mxCell>
        <mxCell id="cAt9lcFB_h7orrg8snh9-55" value="" style="endArrow=none;html=1;rounded=0;entryX=0.5;entryY=1;entryDx=0;entryDy=0;exitX=0.75;exitY=0;exitDx=0;exitDy=0;" parent="1" target="cAt9lcFB_h7orrg8snh9-47" edge="1">
          <mxGeometry relative="1" as="geometry">
            <mxPoint x="-230" y="235" as="sourcePoint" />
            <mxPoint x="-145" y="205" as="targetPoint" />
          </mxGeometry>
        </mxCell>
        <mxCell id="cAt9lcFB_h7orrg8snh9-57" value="seatID" style="ellipse;whiteSpace=wrap;html=1;align=center;" parent="1" vertex="1">
          <mxGeometry x="370" y="185" width="100" height="40" as="geometry" />
        </mxCell>
        <mxCell id="cAt9lcFB_h7orrg8snh9-59" value="bookingID" style="ellipse;whiteSpace=wrap;html=1;align=center;fontStyle=4;" parent="1" vertex="1">
          <mxGeometry x="260" y="175" width="100" height="40" as="geometry" />
        </mxCell>
        <mxCell id="cAt9lcFB_h7orrg8snh9-60" value="tripID" style="ellipse;whiteSpace=wrap;html=1;align=center;" parent="1" vertex="1">
          <mxGeometry x="150" y="195" width="100" height="40" as="geometry" />
        </mxCell>
        <mxCell id="cAt9lcFB_h7orrg8snh9-69" value="" style="endArrow=none;html=1;rounded=0;exitX=0.5;exitY=1;exitDx=0;exitDy=0;entryX=0.25;entryY=0;entryDx=0;entryDy=0;" parent="1" source="cAt9lcFB_h7orrg8snh9-60" target="cAt9lcFB_h7orrg8snh9-28" edge="1">
          <mxGeometry relative="1" as="geometry">
            <mxPoint x="265" y="329" as="sourcePoint" />
            <mxPoint x="300" y="365" as="targetPoint" />
          </mxGeometry>
        </mxCell>
        <mxCell id="cAt9lcFB_h7orrg8snh9-70" value="" style="endArrow=none;html=1;rounded=0;exitX=0.5;exitY=1;exitDx=0;exitDy=0;entryX=0.5;entryY=0;entryDx=0;entryDy=0;" parent="1" source="cAt9lcFB_h7orrg8snh9-59" target="cAt9lcFB_h7orrg8snh9-28" edge="1">
          <mxGeometry relative="1" as="geometry">
            <mxPoint x="340" y="335" as="sourcePoint" />
            <mxPoint x="350" y="365" as="targetPoint" />
          </mxGeometry>
        </mxCell>
        <mxCell id="cAt9lcFB_h7orrg8snh9-72" value="" style="endArrow=none;html=1;rounded=0;exitX=0.5;exitY=1;exitDx=0;exitDy=0;entryX=0.75;entryY=0;entryDx=0;entryDy=0;" parent="1" source="cAt9lcFB_h7orrg8snh9-57" target="cAt9lcFB_h7orrg8snh9-28" edge="1">
          <mxGeometry relative="1" as="geometry">
            <mxPoint x="450" y="335" as="sourcePoint" />
            <mxPoint x="400" y="365" as="targetPoint" />
          </mxGeometry>
        </mxCell>
        <mxCell id="cAt9lcFB_h7orrg8snh9-73" value="Add" style="shape=rhombus;perimeter=rhombusPerimeter;whiteSpace=wrap;html=1;align=center;" parent="1" vertex="1">
          <mxGeometry x="-500" y="695" width="120" height="60" as="geometry" />
        </mxCell>
        <mxCell id="cAt9lcFB_h7orrg8snh9-94" value="Seat" style="shape=ext;margin=3;double=1;whiteSpace=wrap;html=1;align=center;" parent="1" vertex="1">
          <mxGeometry x="525" y="870" width="100" height="40" as="geometry" />
        </mxCell>
        <mxCell id="cAt9lcFB_h7orrg8snh9-95" value="has" style="shape=rhombus;double=1;perimeter=rhombusPerimeter;whiteSpace=wrap;html=1;align=center;" parent="1" vertex="1">
          <mxGeometry x="225" y="860" width="120" height="60" as="geometry" />
        </mxCell>
        <mxCell id="cAt9lcFB_h7orrg8snh9-100" value="Assigns" style="shape=rhombus;double=1;perimeter=rhombusPerimeter;whiteSpace=wrap;html=1;align=center;" parent="1" vertex="1">
          <mxGeometry x="520" y="345" width="120" height="60" as="geometry" />
        </mxCell>
        <mxCell id="cAt9lcFB_h7orrg8snh9-104" value="Reserves" style="shape=rhombus;perimeter=rhombusPerimeter;whiteSpace=wrap;html=1;align=center;" parent="1" vertex="1">
          <mxGeometry x="290" y="635" width="120" height="60" as="geometry" />
        </mxCell>
        <mxCell id="SJ0y8jaMTWIw3GRJQ2rV-9" value="TripID" style="ellipse;whiteSpace=wrap;html=1;align=center;fontStyle=4;" parent="1" vertex="1">
          <mxGeometry x="-180" y="535" width="70" height="40" as="geometry" />
        </mxCell>
        <mxCell id="SJ0y8jaMTWIw3GRJQ2rV-13" value="Destnation" style="ellipse;whiteSpace=wrap;html=1;align=center;" parent="1" vertex="1">
          <mxGeometry x="-105" y="535" width="70" height="40" as="geometry" />
        </mxCell>
        <mxCell id="SJ0y8jaMTWIw3GRJQ2rV-14" value="Duration" style="ellipse;whiteSpace=wrap;html=1;align=center;" parent="1" vertex="1">
          <mxGeometry x="-30" y="535" width="70" height="40" as="geometry" />
        </mxCell>
        <mxCell id="SJ0y8jaMTWIw3GRJQ2rV-15" value="Origin" style="ellipse;whiteSpace=wrap;html=1;align=center;" parent="1" vertex="1">
          <mxGeometry x="35" y="535" width="80" height="40" as="geometry" />
        </mxCell>
        <mxCell id="SJ0y8jaMTWIw3GRJQ2rV-16" value="clientID" style="ellipse;whiteSpace=wrap;html=1;align=center;" parent="1" vertex="1">
          <mxGeometry x="480" y="235" width="100" height="40" as="geometry" />
        </mxCell>
        <mxCell id="SJ0y8jaMTWIw3GRJQ2rV-17" value="" style="endArrow=none;html=1;rounded=0;exitX=0.5;exitY=1;exitDx=0;exitDy=0;entryX=1;entryY=0;entryDx=0;entryDy=0;" parent="1" source="SJ0y8jaMTWIw3GRJQ2rV-16" target="cAt9lcFB_h7orrg8snh9-28" edge="1">
          <mxGeometry relative="1" as="geometry">
            <mxPoint x="350" y="175" as="sourcePoint" />
            <mxPoint x="350" y="365" as="targetPoint" />
          </mxGeometry>
        </mxCell>
        <mxCell id="SJ0y8jaMTWIw3GRJQ2rV-18" value="Date" style="ellipse;whiteSpace=wrap;html=1;align=center;" parent="1" vertex="1">
          <mxGeometry x="120" y="535" width="70" height="40" as="geometry" />
        </mxCell>
        <mxCell id="SJ0y8jaMTWIw3GRJQ2rV-19" value="price" style="ellipse;whiteSpace=wrap;html=1;align=center;" parent="1" vertex="1">
          <mxGeometry x="195" y="535" width="70" height="40" as="geometry" />
        </mxCell>
        <mxCell id="SJ0y8jaMTWIw3GRJQ2rV-20" value="" style="endArrow=none;html=1;rounded=0;exitX=0.5;exitY=1;exitDx=0;exitDy=0;entryX=0;entryY=0.25;entryDx=0;entryDy=0;" parent="1" source="SJ0y8jaMTWIw3GRJQ2rV-9" target="cAt9lcFB_h7orrg8snh9-29" edge="1">
          <mxGeometry relative="1" as="geometry">
            <mxPoint x="-135" y="575" as="sourcePoint" />
            <mxPoint x="40" y="681" as="targetPoint" />
          </mxGeometry>
        </mxCell>
        <mxCell id="SJ0y8jaMTWIw3GRJQ2rV-21" value="" style="endArrow=none;html=1;rounded=0;exitX=0.5;exitY=1;exitDx=0;exitDy=0;entryX=0;entryY=0;entryDx=0;entryDy=0;" parent="1" source="SJ0y8jaMTWIw3GRJQ2rV-13" target="cAt9lcFB_h7orrg8snh9-29" edge="1">
          <mxGeometry relative="1" as="geometry">
            <mxPoint x="-50" y="399" as="sourcePoint" />
            <mxPoint x="125" y="505" as="targetPoint" />
          </mxGeometry>
        </mxCell>
        <mxCell id="SJ0y8jaMTWIw3GRJQ2rV-22" value="" style="endArrow=none;html=1;rounded=0;exitX=0.5;exitY=1;exitDx=0;exitDy=0;entryX=0.25;entryY=0;entryDx=0;entryDy=0;" parent="1" source="SJ0y8jaMTWIw3GRJQ2rV-14" target="cAt9lcFB_h7orrg8snh9-29" edge="1">
          <mxGeometry relative="1" as="geometry">
            <mxPoint x="-40" y="409" as="sourcePoint" />
            <mxPoint x="135" y="515" as="targetPoint" />
          </mxGeometry>
        </mxCell>
        <mxCell id="SJ0y8jaMTWIw3GRJQ2rV-23" value="" style="endArrow=none;html=1;rounded=0;exitX=0.5;exitY=1;exitDx=0;exitDy=0;entryX=0.25;entryY=0;entryDx=0;entryDy=0;" parent="1" source="SJ0y8jaMTWIw3GRJQ2rV-15" target="cAt9lcFB_h7orrg8snh9-29" edge="1">
          <mxGeometry relative="1" as="geometry">
            <mxPoint x="-30" y="419" as="sourcePoint" />
            <mxPoint x="145" y="525" as="targetPoint" />
          </mxGeometry>
        </mxCell>
        <mxCell id="SJ0y8jaMTWIw3GRJQ2rV-24" value="" style="endArrow=none;html=1;rounded=0;exitX=0.5;exitY=1;exitDx=0;exitDy=0;entryX=0.5;entryY=0;entryDx=0;entryDy=0;" parent="1" source="SJ0y8jaMTWIw3GRJQ2rV-18" target="cAt9lcFB_h7orrg8snh9-29" edge="1">
          <mxGeometry relative="1" as="geometry">
            <mxPoint x="-20" y="429" as="sourcePoint" />
            <mxPoint x="155" y="535" as="targetPoint" />
          </mxGeometry>
        </mxCell>
        <mxCell id="SJ0y8jaMTWIw3GRJQ2rV-25" value="" style="endArrow=none;html=1;rounded=0;exitX=0.5;exitY=1;exitDx=0;exitDy=0;entryX=0.75;entryY=0;entryDx=0;entryDy=0;" parent="1" source="SJ0y8jaMTWIw3GRJQ2rV-19" target="cAt9lcFB_h7orrg8snh9-29" edge="1">
          <mxGeometry relative="1" as="geometry">
            <mxPoint x="-10" y="439" as="sourcePoint" />
            <mxPoint x="165" y="545" as="targetPoint" />
          </mxGeometry>
        </mxCell>
        <mxCell id="SJ0y8jaMTWIw3GRJQ2rV-26" value="trainID" style="ellipse;whiteSpace=wrap;html=1;align=center;fontStyle=4;" parent="1" vertex="1">
          <mxGeometry x="-60" y="970" width="80" height="30" as="geometry" />
        </mxCell>
        <mxCell id="SJ0y8jaMTWIw3GRJQ2rV-27" value="" style="endArrow=none;html=1;rounded=0;exitX=0;exitY=1;exitDx=0;exitDy=0;entryX=0.5;entryY=0;entryDx=0;entryDy=0;" parent="1" source="cAt9lcFB_h7orrg8snh9-30" target="SJ0y8jaMTWIw3GRJQ2rV-26" edge="1">
          <mxGeometry relative="1" as="geometry">
            <mxPoint x="95" y="614" as="sourcePoint" />
            <mxPoint x="270" y="720" as="targetPoint" />
          </mxGeometry>
        </mxCell>
        <mxCell id="SJ0y8jaMTWIw3GRJQ2rV-29" value="numOfSeats" style="ellipse;whiteSpace=wrap;html=1;align=center;" parent="1" vertex="1">
          <mxGeometry x="35" y="970" width="85" height="30" as="geometry" />
        </mxCell>
        <mxCell id="SJ0y8jaMTWIw3GRJQ2rV-30" value="" style="endArrow=none;html=1;rounded=0;exitX=0.5;exitY=1;exitDx=0;exitDy=0;" parent="1" source="cAt9lcFB_h7orrg8snh9-30" target="SJ0y8jaMTWIw3GRJQ2rV-29" edge="1">
          <mxGeometry relative="1" as="geometry">
            <mxPoint x="185" y="750" as="sourcePoint" />
            <mxPoint x="180" y="820" as="targetPoint" />
          </mxGeometry>
        </mxCell>
        <mxCell id="SJ0y8jaMTWIw3GRJQ2rV-31" value="" style="endArrow=none;html=1;rounded=0;entryX=0.5;entryY=0;entryDx=0;entryDy=0;exitX=1;exitY=1;exitDx=0;exitDy=0;" parent="1" source="cAt9lcFB_h7orrg8snh9-30" target="SJ0y8jaMTWIw3GRJQ2rV-32" edge="1">
          <mxGeometry relative="1" as="geometry">
            <mxPoint x="130" y="910" as="sourcePoint" />
            <mxPoint x="155" y="980" as="targetPoint" />
          </mxGeometry>
        </mxCell>
        <mxCell id="SJ0y8jaMTWIw3GRJQ2rV-32" value="availableSeats&amp;nbsp;" style="ellipse;whiteSpace=wrap;html=1;align=center;" parent="1" vertex="1">
          <mxGeometry x="140" y="960" width="95" height="40" as="geometry" />
        </mxCell>
        <mxCell id="SJ0y8jaMTWIw3GRJQ2rV-33" value="&lt;span style=&quot;border-bottom: 1px dotted&quot;&gt;seatID&lt;/span&gt;" style="ellipse;whiteSpace=wrap;html=1;align=center;" parent="1" vertex="1">
          <mxGeometry x="425" y="935" width="100" height="40" as="geometry" />
        </mxCell>
        <mxCell id="SJ0y8jaMTWIw3GRJQ2rV-34" value="trainID" style="ellipse;whiteSpace=wrap;html=1;align=center;" parent="1" vertex="1">
          <mxGeometry x="540" y="935" width="100" height="40" as="geometry" />
        </mxCell>
        <mxCell id="SJ0y8jaMTWIw3GRJQ2rV-35" value="" style="endArrow=none;html=1;rounded=0;exitX=0;exitY=1;exitDx=0;exitDy=0;entryX=0.5;entryY=0;entryDx=0;entryDy=0;" parent="1" source="cAt9lcFB_h7orrg8snh9-94" edge="1">
          <mxGeometry relative="1" as="geometry">
            <mxPoint x="330" y="740" as="sourcePoint" />
            <mxPoint x="515" y="935.0000000000002" as="targetPoint" />
          </mxGeometry>
        </mxCell>
        <mxCell id="SJ0y8jaMTWIw3GRJQ2rV-37" value="" style="endArrow=none;html=1;rounded=0;entryX=0.5;entryY=0;entryDx=0;entryDy=0;exitX=0.25;exitY=1;exitDx=0;exitDy=0;" parent="1" source="cAt9lcFB_h7orrg8snh9-94" target="SJ0y8jaMTWIw3GRJQ2rV-34" edge="1">
          <mxGeometry relative="1" as="geometry">
            <mxPoint x="615" y="895" as="sourcePoint" />
            <mxPoint x="235" y="820" as="targetPoint" />
          </mxGeometry>
        </mxCell>
        <mxCell id="F5jp0IcAEOrsmcqlYZiM-2" value="" style="shape=link;html=1;rounded=0;entryX=0;entryY=0.5;entryDx=0;entryDy=0;exitX=0.5;exitY=1;exitDx=0;exitDy=0;" parent="1" source="cAt9lcFB_h7orrg8snh9-73" target="cAt9lcFB_h7orrg8snh9-30" edge="1">
          <mxGeometry relative="1" as="geometry">
            <mxPoint x="60" y="505" as="sourcePoint" />
            <mxPoint x="220" y="505" as="targetPoint" />
          </mxGeometry>
        </mxCell>
        <mxCell id="F5jp0IcAEOrsmcqlYZiM-3" value="N" style="resizable=0;html=1;whiteSpace=wrap;align=right;verticalAlign=bottom;" parent="F5jp0IcAEOrsmcqlYZiM-2" connectable="0" vertex="1">
          <mxGeometry x="1" relative="1" as="geometry">
            <mxPoint x="-3" y="-8" as="offset" />
          </mxGeometry>
        </mxCell>
        <mxCell id="F5jp0IcAEOrsmcqlYZiM-4" value="" style="shape=link;html=1;rounded=0;entryX=1;entryY=0.75;entryDx=0;entryDy=0;" parent="1" source="cAt9lcFB_h7orrg8snh9-95" target="cAt9lcFB_h7orrg8snh9-30" edge="1">
          <mxGeometry relative="1" as="geometry">
            <mxPoint x="-25" y="720" as="sourcePoint" />
            <mxPoint x="135" y="720" as="targetPoint" />
          </mxGeometry>
        </mxCell>
        <mxCell id="F5jp0IcAEOrsmcqlYZiM-5" value="1" style="resizable=0;html=1;whiteSpace=wrap;align=right;verticalAlign=bottom;" parent="F5jp0IcAEOrsmcqlYZiM-4" connectable="0" vertex="1">
          <mxGeometry x="1" relative="1" as="geometry">
            <mxPoint x="12" as="offset" />
          </mxGeometry>
        </mxCell>
        <mxCell id="F5jp0IcAEOrsmcqlYZiM-8" value="" style="shape=link;html=1;rounded=0;entryX=0;entryY=0.5;entryDx=0;entryDy=0;exitX=1;exitY=0.5;exitDx=0;exitDy=0;" parent="1" source="cAt9lcFB_h7orrg8snh9-95" target="cAt9lcFB_h7orrg8snh9-94" edge="1">
          <mxGeometry relative="1" as="geometry">
            <mxPoint x="-25" y="720" as="sourcePoint" />
            <mxPoint x="135" y="720" as="targetPoint" />
          </mxGeometry>
        </mxCell>
        <mxCell id="F5jp0IcAEOrsmcqlYZiM-9" value="N" style="resizable=0;html=1;whiteSpace=wrap;align=right;verticalAlign=bottom;" parent="F5jp0IcAEOrsmcqlYZiM-8" connectable="0" vertex="1">
          <mxGeometry x="1" relative="1" as="geometry">
            <mxPoint x="-2" as="offset" />
          </mxGeometry>
        </mxCell>
        <mxCell id="F5jp0IcAEOrsmcqlYZiM-10" value="" style="shape=link;html=1;rounded=0;entryX=0.25;entryY=1;entryDx=0;entryDy=0;exitX=1;exitY=0.5;exitDx=0;exitDy=0;" parent="1" edge="1">
          <mxGeometry relative="1" as="geometry">
            <mxPoint x="-384" y="725" as="sourcePoint" />
            <mxPoint x="46" y="685" as="targetPoint" />
            <Array as="points">
              <mxPoint x="26" y="767" />
            </Array>
          </mxGeometry>
        </mxCell>
        <mxCell id="F5jp0IcAEOrsmcqlYZiM-14" value="" style="endArrow=none;html=1;rounded=0;entryX=0.5;entryY=1;entryDx=0;entryDy=0;" parent="1" source="cAt9lcFB_h7orrg8snh9-73" target="cAt9lcFB_h7orrg8snh9-19" edge="1">
          <mxGeometry relative="1" as="geometry">
            <mxPoint x="-70" y="640" as="sourcePoint" />
            <mxPoint x="90" y="640" as="targetPoint" />
          </mxGeometry>
        </mxCell>
        <mxCell id="F5jp0IcAEOrsmcqlYZiM-15" value="1" style="resizable=0;html=1;whiteSpace=wrap;align=right;verticalAlign=bottom;" parent="F5jp0IcAEOrsmcqlYZiM-14" connectable="0" vertex="1">
          <mxGeometry x="1" relative="1" as="geometry">
            <mxPoint x="-1" y="19" as="offset" />
          </mxGeometry>
        </mxCell>
        <mxCell id="F5jp0IcAEOrsmcqlYZiM-18" value="" style="shape=link;html=1;rounded=0;entryX=1;entryY=0.5;entryDx=0;entryDy=0;exitX=0;exitY=0.5;exitDx=0;exitDy=0;" parent="1" source="cAt9lcFB_h7orrg8snh9-100" target="cAt9lcFB_h7orrg8snh9-28" edge="1">
          <mxGeometry relative="1" as="geometry">
            <mxPoint x="710" y="440" as="sourcePoint" />
            <mxPoint x="140" y="620" as="targetPoint" />
          </mxGeometry>
        </mxCell>
        <mxCell id="F5jp0IcAEOrsmcqlYZiM-19" value="1" style="resizable=0;html=1;whiteSpace=wrap;align=right;verticalAlign=bottom;" parent="F5jp0IcAEOrsmcqlYZiM-18" connectable="0" vertex="1">
          <mxGeometry x="1" relative="1" as="geometry">
            <mxPoint x="13" y="-3" as="offset" />
          </mxGeometry>
        </mxCell>
        <mxCell id="F5jp0IcAEOrsmcqlYZiM-21" value="" style="shape=link;html=1;rounded=0;exitX=0.5;exitY=0;exitDx=0;exitDy=0;" parent="1" source="cAt9lcFB_h7orrg8snh9-104" edge="1">
          <mxGeometry relative="1" as="geometry">
            <mxPoint x="350" y="631" as="sourcePoint" />
            <mxPoint x="350" y="396" as="targetPoint" />
          </mxGeometry>
        </mxCell>
        <mxCell id="F5jp0IcAEOrsmcqlYZiM-22" value="1" style="resizable=0;html=1;whiteSpace=wrap;align=right;verticalAlign=bottom;" parent="F5jp0IcAEOrsmcqlYZiM-21" connectable="0" vertex="1">
          <mxGeometry x="1" relative="1" as="geometry">
            <mxPoint x="-4" y="21" as="offset" />
          </mxGeometry>
        </mxCell>
        <mxCell id="F5jp0IcAEOrsmcqlYZiM-24" value="" style="endArrow=none;html=1;rounded=0;entryX=1;entryY=0.5;entryDx=0;entryDy=0;exitX=0;exitY=0.5;exitDx=0;exitDy=0;" parent="1" source="cAt9lcFB_h7orrg8snh9-104" target="cAt9lcFB_h7orrg8snh9-29" edge="1">
          <mxGeometry relative="1" as="geometry">
            <mxPoint x="-60" y="620" as="sourcePoint" />
            <mxPoint x="100" y="620" as="targetPoint" />
          </mxGeometry>
        </mxCell>
        <mxCell id="F5jp0IcAEOrsmcqlYZiM-25" value="1" style="resizable=0;html=1;whiteSpace=wrap;align=right;verticalAlign=bottom;" parent="F5jp0IcAEOrsmcqlYZiM-24" connectable="0" vertex="1">
          <mxGeometry x="1" relative="1" as="geometry">
            <mxPoint x="12" as="offset" />
          </mxGeometry>
        </mxCell>
        <mxCell id="F5jp0IcAEOrsmcqlYZiM-26" value="" style="endArrow=none;html=1;rounded=0;entryX=0.5;entryY=0;entryDx=0;entryDy=0;exitX=0.5;exitY=1;exitDx=0;exitDy=0;" parent="1" source="cAt9lcFB_h7orrg8snh9-100" target="cAt9lcFB_h7orrg8snh9-94" edge="1">
          <mxGeometry relative="1" as="geometry">
            <mxPoint x="-60" y="620" as="sourcePoint" />
            <mxPoint x="100" y="620" as="targetPoint" />
          </mxGeometry>
        </mxCell>
        <mxCell id="F5jp0IcAEOrsmcqlYZiM-27" value="M" style="resizable=0;html=1;whiteSpace=wrap;align=right;verticalAlign=bottom;" parent="F5jp0IcAEOrsmcqlYZiM-26" connectable="0" vertex="1">
          <mxGeometry x="1" relative="1" as="geometry">
            <mxPoint x="17" as="offset" />
          </mxGeometry>
        </mxCell>
        <mxCell id="F5jp0IcAEOrsmcqlYZiM-32" value="" style="shape=link;html=1;rounded=0;exitX=1;exitY=0.5;exitDx=0;exitDy=0;" parent="1" source="cAt9lcFB_h7orrg8snh9-36" edge="1">
          <mxGeometry relative="1" as="geometry">
            <mxPoint x="10" y="530" as="sourcePoint" />
            <mxPoint x="330" y="375" as="targetPoint" />
          </mxGeometry>
        </mxCell>
        <mxCell id="F5jp0IcAEOrsmcqlYZiM-33" value="M" style="resizable=0;html=1;whiteSpace=wrap;align=right;verticalAlign=bottom;" parent="F5jp0IcAEOrsmcqlYZiM-32" connectable="0" vertex="1">
          <mxGeometry x="1" relative="1" as="geometry">
            <mxPoint x="-9" as="offset" />
          </mxGeometry>
        </mxCell>
        <mxCell id="F5jp0IcAEOrsmcqlYZiM-36" value="N" style="resizable=0;html=1;whiteSpace=wrap;align=right;verticalAlign=bottom;" parent="1" connectable="0" vertex="1">
          <mxGeometry x="150" y="860.0000000000002" as="geometry">
            <mxPoint x="-117" y="-140" as="offset" />
          </mxGeometry>
        </mxCell>
        <mxCell id="F5jp0IcAEOrsmcqlYZiM-38" value="" style="endArrow=none;html=1;rounded=0;entryX=0;entryY=0.5;entryDx=0;entryDy=0;exitX=1;exitY=0.5;exitDx=0;exitDy=0;" parent="1" source="cAt9lcFB_h7orrg8snh9-18" target="cAt9lcFB_h7orrg8snh9-36" edge="1">
          <mxGeometry relative="1" as="geometry">
            <mxPoint x="40" y="510" as="sourcePoint" />
            <mxPoint x="200" y="510" as="targetPoint" />
          </mxGeometry>
        </mxCell>
        <mxCell id="F5jp0IcAEOrsmcqlYZiM-39" value="1" style="resizable=0;html=1;whiteSpace=wrap;align=right;verticalAlign=bottom;" parent="F5jp0IcAEOrsmcqlYZiM-38" connectable="0" vertex="1">
          <mxGeometry x="1" relative="1" as="geometry" />
        </mxCell>
        <mxCell id="wr5w-mMTycUevZ-Zn1zt-2" value="" style="endArrow=none;html=1;rounded=0;entryX=0.5;entryY=1;entryDx=0;entryDy=0;exitX=1;exitY=0;exitDx=0;exitDy=0;" parent="1" source="cAt9lcFB_h7orrg8snh9-29" target="wr5w-mMTycUevZ-Zn1zt-3" edge="1">
          <mxGeometry relative="1" as="geometry">
            <mxPoint x="127.5" y="645.0000000000002" as="sourcePoint" />
            <mxPoint x="155" y="720" as="targetPoint" />
          </mxGeometry>
        </mxCell>
        <mxCell id="wr5w-mMTycUevZ-Zn1zt-3" value="trainID" style="ellipse;whiteSpace=wrap;html=1;align=center;" parent="1" vertex="1">
          <mxGeometry x="250" y="580" width="95" height="40" as="geometry" />
        </mxCell>
        <mxCell id="wr5w-mMTycUevZ-Zn1zt-4" value="By" style="shape=rhombus;perimeter=rhombusPerimeter;whiteSpace=wrap;html=1;align=center;" parent="1" vertex="1">
          <mxGeometry x="15" y="755" width="120" height="60" as="geometry" />
        </mxCell>
        <mxCell id="wr5w-mMTycUevZ-Zn1zt-7" value="" style="shape=link;html=1;rounded=0;entryX=0.5;entryY=1;entryDx=0;entryDy=0;exitX=0.5;exitY=0;exitDx=0;exitDy=0;" parent="1" source="wr5w-mMTycUevZ-Zn1zt-4" target="cAt9lcFB_h7orrg8snh9-29" edge="1">
          <mxGeometry relative="1" as="geometry">
            <mxPoint x="50" y="790" as="sourcePoint" />
            <mxPoint x="210" y="790" as="targetPoint" />
          </mxGeometry>
        </mxCell>
        <mxCell id="wr5w-mMTycUevZ-Zn1zt-8" value="1" style="resizable=0;html=1;whiteSpace=wrap;align=right;verticalAlign=bottom;" parent="wr5w-mMTycUevZ-Zn1zt-7" connectable="0" vertex="1">
          <mxGeometry x="1" relative="1" as="geometry">
            <mxPoint x="-4" y="20" as="offset" />
          </mxGeometry>
        </mxCell>
        <mxCell id="wr5w-mMTycUevZ-Zn1zt-11" value="" style="endArrow=none;html=1;rounded=0;entryX=0.5;entryY=0;entryDx=0;entryDy=0;exitX=0.5;exitY=1;exitDx=0;exitDy=0;" parent="1" source="wr5w-mMTycUevZ-Zn1zt-4" target="cAt9lcFB_h7orrg8snh9-30" edge="1">
          <mxGeometry relative="1" as="geometry">
            <mxPoint x="-70" y="680" as="sourcePoint" />
            <mxPoint x="90" y="680" as="targetPoint" />
          </mxGeometry>
        </mxCell>
        <mxCell id="wr5w-mMTycUevZ-Zn1zt-12" value="1" style="resizable=0;html=1;whiteSpace=wrap;align=right;verticalAlign=bottom;" parent="wr5w-mMTycUevZ-Zn1zt-11" connectable="0" vertex="1">
          <mxGeometry x="1" relative="1" as="geometry">
            <mxPoint x="-3" as="offset" />
          </mxGeometry>
        </mxCell>
        <mxCell id="s6nfA1j2drmr5ukAhDH0-2" value="Register" style="shape=rhombus;perimeter=rhombusPerimeter;whiteSpace=wrap;html=1;align=center;" parent="1" vertex="1">
          <mxGeometry x="-660" y="385" width="120" height="60" as="geometry" />
        </mxCell>
        <mxCell id="s6nfA1j2drmr5ukAhDH0-3" value="" style="endArrow=none;html=1;rounded=0;entryX=0.25;entryY=1;entryDx=0;entryDy=0;exitX=1;exitY=0.5;exitDx=0;exitDy=0;" parent="1" source="s6nfA1j2drmr5ukAhDH0-2" target="cAt9lcFB_h7orrg8snh9-19" edge="1">
          <mxGeometry relative="1" as="geometry">
            <mxPoint x="-600" y="440" as="sourcePoint" />
            <mxPoint x="-90" y="480" as="targetPoint" />
          </mxGeometry>
        </mxCell>
        <mxCell id="s6nfA1j2drmr5ukAhDH0-4" value="1" style="resizable=0;html=1;whiteSpace=wrap;align=right;verticalAlign=bottom;" parent="s6nfA1j2drmr5ukAhDH0-3" connectable="0" vertex="1">
          <mxGeometry x="1" relative="1" as="geometry">
            <mxPoint x="-40" as="offset" />
          </mxGeometry>
        </mxCell>
        <mxCell id="s6nfA1j2drmr5ukAhDH0-5" value="" style="endArrow=none;html=1;rounded=0;entryX=0;entryY=0.25;entryDx=0;entryDy=0;exitX=0.5;exitY=0;exitDx=0;exitDy=0;" parent="1" source="s6nfA1j2drmr5ukAhDH0-2" target="cAt9lcFB_h7orrg8snh9-19" edge="1">
          <mxGeometry relative="1" as="geometry">
            <mxPoint x="-80" y="480" as="sourcePoint" />
            <mxPoint x="80" y="480" as="targetPoint" />
          </mxGeometry>
        </mxCell>
        <mxCell id="s6nfA1j2drmr5ukAhDH0-6" value="N" style="resizable=0;html=1;whiteSpace=wrap;align=right;verticalAlign=bottom;" parent="s6nfA1j2drmr5ukAhDH0-5" connectable="0" vertex="1">
          <mxGeometry x="1" relative="1" as="geometry">
            <mxPoint x="-14" as="offset" />
          </mxGeometry>
        </mxCell>
        <mxCell id="s6nfA1j2drmr5ukAhDH0-11" value="BookingID" style="ellipse;whiteSpace=wrap;html=1;align=center;" parent="1" vertex="1">
          <mxGeometry x="660" y="910" width="100" height="40" as="geometry" />
        </mxCell>
        <mxCell id="s6nfA1j2drmr5ukAhDH0-12" value="" style="endArrow=none;html=1;rounded=0;entryX=1;entryY=0.5;entryDx=0;entryDy=0;exitX=0;exitY=0;exitDx=0;exitDy=0;" parent="1" source="s6nfA1j2drmr5ukAhDH0-11" target="cAt9lcFB_h7orrg8snh9-94" edge="1">
          <mxGeometry relative="1" as="geometry">
            <mxPoint x="10" y="670" as="sourcePoint" />
            <mxPoint x="170" y="670" as="targetPoint" />
          </mxGeometry>
        </mxCell>
        <mxCell id="Yii7B8U4m6WOWpDxo8xm-1" value="" style="endArrow=none;html=1;rounded=0;entryX=0;entryY=0.5;entryDx=0;entryDy=0;exitX=0.5;exitY=0;exitDx=0;exitDy=0;" edge="1" parent="1" source="Yii7B8U4m6WOWpDxo8xm-3" target="cAt9lcFB_h7orrg8snh9-18">
          <mxGeometry relative="1" as="geometry">
            <mxPoint x="-250" y="375" as="sourcePoint" />
            <mxPoint x="20" y="590" as="targetPoint" />
          </mxGeometry>
        </mxCell>
        <mxCell id="Yii7B8U4m6WOWpDxo8xm-2" value="N" style="resizable=0;html=1;whiteSpace=wrap;align=right;verticalAlign=bottom;" connectable="0" vertex="1" parent="Yii7B8U4m6WOWpDxo8xm-1">
          <mxGeometry x="1" relative="1" as="geometry">
            <mxPoint x="-2" as="offset" />
          </mxGeometry>
        </mxCell>
        <mxCell id="Yii7B8U4m6WOWpDxo8xm-3" value="Choose" style="shape=rhombus;perimeter=rhombusPerimeter;whiteSpace=wrap;html=1;align=center;" vertex="1" parent="1">
          <mxGeometry x="-320" y="375" width="120" height="60" as="geometry" />
        </mxCell>
        <mxCell id="Yii7B8U4m6WOWpDxo8xm-4" value="" style="endArrow=none;html=1;rounded=0;entryX=0;entryY=0.75;entryDx=0;entryDy=0;exitX=0.5;exitY=1;exitDx=0;exitDy=0;" edge="1" parent="1" source="Yii7B8U4m6WOWpDxo8xm-3" target="cAt9lcFB_h7orrg8snh9-29">
          <mxGeometry relative="1" as="geometry">
            <mxPoint x="-250" y="670" as="sourcePoint" />
            <mxPoint x="20" y="590" as="targetPoint" />
            <Array as="points">
              <mxPoint x="-260" y="680" />
            </Array>
          </mxGeometry>
        </mxCell>
        <mxCell id="Yii7B8U4m6WOWpDxo8xm-5" value="N" style="resizable=0;html=1;whiteSpace=wrap;align=right;verticalAlign=bottom;" connectable="0" vertex="1" parent="Yii7B8U4m6WOWpDxo8xm-4">
          <mxGeometry x="1" relative="1" as="geometry" />
        </mxCell>
      </root>
    </mxGraphModel>
  </diagram>
</mxfile>
